<mxfile host="www.draw.io" modified="2019-10-25T14:00:25.154Z" agent="Mozilla/5.0 (X11; Linux x86_64) AppleWebKit/537.36 (KHTML, like Gecko) Chrome/78.0.3904.70 Safari/537.36" etag="k28Q9lNXwUFQPk1lY_mN" version="12.1.5" type="github" pages="1">
  <diagram id="VNT2iLOKcSL6MWKdi-43" name="Page-1">
    <mxGraphModel dx="630" dy="313" grid="1" gridSize="10" guides="1" tooltips="1" connect="1" arrows="1" fold="1" page="1" pageScale="1" pageWidth="827" pageHeight="1169" math="0" shadow="0">
      <root>
        <mxCell id="0"/>
        <mxCell id="1" parent="0"/>
        <mxCell id="L07qHpA4tPIu6Sngrlaf-94" value="Grupos" parent="0"/>
        <mxCell id="L07qHpA4tPIu6Sngrlaf-98" value="" style="group" parent="L07qHpA4tPIu6Sngrlaf-94" vertex="1" connectable="0">
          <mxGeometry x="410" y="580" width="400" height="170" as="geometry"/>
        </mxCell>
        <mxCell id="L07qHpA4tPIu6Sngrlaf-97" value="" style="rounded=1;whiteSpace=wrap;html=1;shadow=0;labelBackgroundColor=#ffffff;arcSize=45;fillColor=#FFE599;strokeColor=none;" parent="L07qHpA4tPIu6Sngrlaf-98" vertex="1">
          <mxGeometry x="100" width="200" height="160" as="geometry"/>
        </mxCell>
        <mxCell id="L07qHpA4tPIu6Sngrlaf-22" value="" style="verticalLabelPosition=bottom;html=1;fillColor=#1ba1e2;verticalAlign=top;points=[[0.145,0.145,0],[0.8555,0.145,0],[0.855,0.855,0],[0.145,0.855,0],[0.5,0,0], [1,0.5,0], [0.5,1,0],[0,0.5,0]];pointerEvents=1;align=center;shape=mxgraph.cisco_safe.capability.l2_switching;strokeColor=#006EAF;fontColor=#ffffff;flipH=0;" parent="L07qHpA4tPIu6Sngrlaf-98" vertex="1">
          <mxGeometry x="140" y="100" width="40" height="40" as="geometry"/>
        </mxCell>
        <mxCell id="L07qHpA4tPIu6Sngrlaf-91" value="" style="verticalLabelPosition=bottom;html=1;fillColor=#1ba1e2;verticalAlign=top;points=[[0.145,0.145,0],[0.8555,0.145,0],[0.855,0.855,0],[0.145,0.855,0],[0.5,0,0], [1,0.5,0], [0.5,1,0],[0,0.5,0]];pointerEvents=1;align=center;shape=mxgraph.cisco_safe.capability.l2_switching;strokeColor=#006EAF;fontColor=#ffffff;flipH=0;" parent="L07qHpA4tPIu6Sngrlaf-98" vertex="1">
          <mxGeometry x="180" y="60" width="40" height="40" as="geometry"/>
        </mxCell>
        <mxCell id="L07qHpA4tPIu6Sngrlaf-90" value="" style="verticalLabelPosition=bottom;html=1;fillColor=#1ba1e2;verticalAlign=top;points=[[0.145,0.145,0],[0.8555,0.145,0],[0.855,0.855,0],[0.145,0.855,0],[0.5,0,0], [1,0.5,0], [0.5,1,0],[0,0.5,0]];pointerEvents=1;align=center;shape=mxgraph.cisco_safe.capability.l2_switching;strokeColor=#006EAF;fontColor=#ffffff;flipH=0;" parent="L07qHpA4tPIu6Sngrlaf-98" vertex="1">
          <mxGeometry x="140" y="20" width="40" height="40" as="geometry"/>
        </mxCell>
        <mxCell id="L07qHpA4tPIu6Sngrlaf-92" value="" style="verticalLabelPosition=bottom;html=1;fillColor=#1ba1e2;verticalAlign=top;points=[[0.145,0.145,0],[0.8555,0.145,0],[0.855,0.855,0],[0.145,0.855,0],[0.5,0,0], [1,0.5,0], [0.5,1,0],[0,0.5,0]];pointerEvents=1;align=center;shape=mxgraph.cisco_safe.capability.l2_switching;strokeColor=#006EAF;fontColor=#ffffff;flipH=0;" parent="L07qHpA4tPIu6Sngrlaf-98" vertex="1">
          <mxGeometry x="220" y="20" width="40" height="40" as="geometry"/>
        </mxCell>
        <mxCell id="L07qHpA4tPIu6Sngrlaf-93" value="" style="verticalLabelPosition=bottom;html=1;fillColor=#1ba1e2;verticalAlign=top;points=[[0.145,0.145,0],[0.8555,0.145,0],[0.855,0.855,0],[0.145,0.855,0],[0.5,0,0], [1,0.5,0], [0.5,1,0],[0,0.5,0]];pointerEvents=1;align=center;shape=mxgraph.cisco_safe.capability.l2_switching;strokeColor=#006EAF;fontColor=#ffffff;flipH=0;" parent="L07qHpA4tPIu6Sngrlaf-98" vertex="1">
          <mxGeometry x="220" y="100" width="40" height="40" as="geometry"/>
        </mxCell>
        <mxCell id="nwbIhPX5BDSDUk8YW6Fk-40" value="100 Mbps" style="text;html=1;strokeColor=#000000;fillColor=none;align=center;verticalAlign=middle;whiteSpace=wrap;rounded=0;shadow=0;labelBackgroundColor=#ffffff;comic=0;glass=0;" vertex="1" parent="L07qHpA4tPIu6Sngrlaf-98">
          <mxGeometry x="10" y="150" width="60" height="20" as="geometry"/>
        </mxCell>
        <mxCell id="nwbIhPX5BDSDUk8YW6Fk-35" style="edgeStyle=orthogonalEdgeStyle;rounded=1;orthogonalLoop=1;jettySize=auto;html=1;exitX=1;exitY=0.5;exitDx=0;exitDy=0;entryX=0.039;entryY=0.744;entryDx=0;entryDy=0;entryPerimeter=0;endArrow=none;endFill=0;strokeColor=#000000;" edge="1" parent="L07qHpA4tPIu6Sngrlaf-98" source="nwbIhPX5BDSDUk8YW6Fk-40" target="L07qHpA4tPIu6Sngrlaf-97">
          <mxGeometry relative="1" as="geometry">
            <Array as="points">
              <mxPoint x="80" y="160"/>
              <mxPoint x="80" y="119"/>
            </Array>
          </mxGeometry>
        </mxCell>
        <mxCell id="L07qHpA4tPIu6Sngrlaf-102" value="" style="ellipse;whiteSpace=wrap;html=1;aspect=fixed;shadow=0;labelBackgroundColor=#ffffff;fillColor=#FFE599;strokeColor=none;" parent="L07qHpA4tPIu6Sngrlaf-94" vertex="1">
          <mxGeometry x="260" y="510" width="140" height="140" as="geometry"/>
        </mxCell>
        <mxCell id="L07qHpA4tPIu6Sngrlaf-103" value="" style="ellipse;whiteSpace=wrap;html=1;aspect=fixed;shadow=0;labelBackgroundColor=#ffffff;fillColor=#FFE599;strokeColor=none;" parent="L07qHpA4tPIu6Sngrlaf-94" vertex="1">
          <mxGeometry x="260" y="670" width="140" height="140" as="geometry"/>
        </mxCell>
        <mxCell id="L07qHpA4tPIu6Sngrlaf-12" value="" style="pointerEvents=1;shadow=0;dashed=0;html=1;strokeColor=none;labelPosition=center;verticalLabelPosition=bottom;verticalAlign=top;outlineConnect=0;align=center;shape=mxgraph.office.concepts.home;fillColor=#2072B8;" parent="L07qHpA4tPIu6Sngrlaf-94" vertex="1">
          <mxGeometry x="300" y="690" width="40" height="40" as="geometry"/>
        </mxCell>
        <mxCell id="L07qHpA4tPIu6Sngrlaf-13" value="" style="pointerEvents=1;shadow=0;dashed=0;html=1;strokeColor=none;labelPosition=center;verticalLabelPosition=bottom;verticalAlign=top;outlineConnect=0;align=center;shape=mxgraph.office.concepts.home;fillColor=#DA4026;" parent="L07qHpA4tPIu6Sngrlaf-94" vertex="1">
          <mxGeometry x="330" y="720" width="40" height="40" as="geometry"/>
        </mxCell>
        <mxCell id="L07qHpA4tPIu6Sngrlaf-14" value="" style="pointerEvents=1;shadow=0;dashed=0;html=1;strokeColor=none;labelPosition=center;verticalLabelPosition=bottom;verticalAlign=top;outlineConnect=0;align=center;shape=mxgraph.office.concepts.home;fillColor=#7FBA42;" parent="L07qHpA4tPIu6Sngrlaf-94" vertex="1">
          <mxGeometry x="290" y="740" width="40" height="40" as="geometry"/>
        </mxCell>
        <mxCell id="nwbIhPX5BDSDUk8YW6Fk-15" value="" style="group" vertex="1" connectable="0" parent="L07qHpA4tPIu6Sngrlaf-94">
          <mxGeometry x="10" y="200" width="470" height="300" as="geometry"/>
        </mxCell>
        <mxCell id="nwbIhPX5BDSDUk8YW6Fk-16" value="" style="rounded=1;whiteSpace=wrap;html=1;shadow=0;labelBackgroundColor=#ffffff;arcSize=45;fillColor=#FFE599;strokeColor=none;" vertex="1" parent="nwbIhPX5BDSDUk8YW6Fk-15">
          <mxGeometry width="330" height="300" as="geometry"/>
        </mxCell>
        <mxCell id="L07qHpA4tPIu6Sngrlaf-41" style="edgeStyle=orthogonalEdgeStyle;curved=1;orthogonalLoop=1;jettySize=auto;html=1;exitX=0;exitY=0.5;exitDx=0;exitDy=0;exitPerimeter=0;endArrow=none;endFill=0;strokeColor=#FF0000;strokeWidth=3;" parent="nwbIhPX5BDSDUk8YW6Fk-15" source="nwbIhPX5BDSDUk8YW6Fk-2" target="L07qHpA4tPIu6Sngrlaf-26" edge="1">
          <mxGeometry relative="1" as="geometry"/>
        </mxCell>
        <mxCell id="nwbIhPX5BDSDUk8YW6Fk-66" style="edgeStyle=orthogonalEdgeStyle;rounded=1;orthogonalLoop=1;jettySize=auto;html=1;exitX=0.145;exitY=0.145;exitDx=0;exitDy=0;exitPerimeter=0;endArrow=none;endFill=0;strokeColor=#000000;" edge="1" parent="nwbIhPX5BDSDUk8YW6Fk-15" source="L07qHpA4tPIu6Sngrlaf-42" target="L07qHpA4tPIu6Sngrlaf-24">
          <mxGeometry relative="1" as="geometry"/>
        </mxCell>
        <mxCell id="nwbIhPX5BDSDUk8YW6Fk-68" style="edgeStyle=orthogonalEdgeStyle;rounded=1;orthogonalLoop=1;jettySize=auto;html=1;exitX=0.145;exitY=0.855;exitDx=0;exitDy=0;exitPerimeter=0;endArrow=none;endFill=0;strokeColor=#000000;" edge="1" parent="nwbIhPX5BDSDUk8YW6Fk-15" source="L07qHpA4tPIu6Sngrlaf-42" target="L07qHpA4tPIu6Sngrlaf-8">
          <mxGeometry relative="1" as="geometry">
            <Array as="points">
              <mxPoint x="150" y="118"/>
              <mxPoint x="150" y="206"/>
            </Array>
          </mxGeometry>
        </mxCell>
        <mxCell id="nwbIhPX5BDSDUk8YW6Fk-69" style="edgeStyle=orthogonalEdgeStyle;rounded=1;orthogonalLoop=1;jettySize=auto;html=1;exitX=1;exitY=0.5;exitDx=0;exitDy=0;exitPerimeter=0;endArrow=none;endFill=0;strokeColor=#000000;" edge="1" parent="nwbIhPX5BDSDUk8YW6Fk-15" source="L07qHpA4tPIu6Sngrlaf-42" target="L07qHpA4tPIu6Sngrlaf-10">
          <mxGeometry relative="1" as="geometry">
            <Array as="points">
              <mxPoint x="240" y="98"/>
              <mxPoint x="240" y="153"/>
              <mxPoint x="219" y="153"/>
            </Array>
          </mxGeometry>
        </mxCell>
        <mxCell id="nwbIhPX5BDSDUk8YW6Fk-70" style="edgeStyle=orthogonalEdgeStyle;rounded=1;orthogonalLoop=1;jettySize=auto;html=1;exitX=0.5;exitY=0;exitDx=0;exitDy=0;exitPerimeter=0;endArrow=none;endFill=0;strokeColor=#000000;" edge="1" parent="nwbIhPX5BDSDUk8YW6Fk-15" source="L07qHpA4tPIu6Sngrlaf-42" target="L07qHpA4tPIu6Sngrlaf-26">
          <mxGeometry relative="1" as="geometry">
            <Array as="points">
              <mxPoint x="195" y="50"/>
              <mxPoint x="220" y="50"/>
            </Array>
          </mxGeometry>
        </mxCell>
        <mxCell id="L07qHpA4tPIu6Sngrlaf-42" value="" style="verticalLabelPosition=bottom;html=1;fillColor=#28A8E0;verticalAlign=top;points=[[0.145,0.145,0],[0.8555,0.145,0],[0.855,0.855,0],[0.145,0.855,0],[0.5,0,0], [1,0.5,0], [0.5,1,0],[0,0.5,0]];pointerEvents=1;align=center;shape=mxgraph.cisco_safe.capability.virtual_l2_switching;shadow=0;labelBackgroundColor=#ffffff;" parent="nwbIhPX5BDSDUk8YW6Fk-15" vertex="1">
          <mxGeometry x="170" y="70.16666666666669" width="50" height="55.55555555555556" as="geometry"/>
        </mxCell>
        <mxCell id="L07qHpA4tPIu6Sngrlaf-24" value="" style="verticalLabelPosition=bottom;aspect=fixed;html=1;verticalAlign=top;strokeColor=none;align=center;outlineConnect=0;shape=mxgraph.citrix.radius_server;" parent="nwbIhPX5BDSDUk8YW6Fk-15" vertex="1">
          <mxGeometry x="60" y="20" width="75.5" height="91" as="geometry"/>
        </mxCell>
        <mxCell id="L07qHpA4tPIu6Sngrlaf-10" value="" style="verticalLabelPosition=bottom;aspect=fixed;html=1;verticalAlign=top;strokeColor=none;align=center;outlineConnect=0;shape=mxgraph.citrix.web_server;" parent="nwbIhPX5BDSDUk8YW6Fk-15" vertex="1">
          <mxGeometry x="180" y="180" width="76.5" height="90" as="geometry"/>
        </mxCell>
        <mxCell id="L07qHpA4tPIu6Sngrlaf-8" value="" style="verticalLabelPosition=bottom;aspect=fixed;html=1;verticalAlign=top;strokeColor=none;align=center;outlineConnect=0;shape=mxgraph.citrix.dns_server;" parent="nwbIhPX5BDSDUk8YW6Fk-15" vertex="1">
          <mxGeometry x="40" y="150" width="76.5" height="92.5" as="geometry"/>
        </mxCell>
        <mxCell id="L07qHpA4tPIu6Sngrlaf-26" value="" style="verticalLabelPosition=bottom;aspect=fixed;html=1;verticalAlign=top;strokeColor=none;align=center;outlineConnect=0;shape=mxgraph.citrix.1u_2u_server;" parent="nwbIhPX5BDSDUk8YW6Fk-15" vertex="1">
          <mxGeometry x="210" y="0.16666666666668561" width="75" height="29.325000000000003" as="geometry"/>
        </mxCell>
        <mxCell id="nwbIhPX5BDSDUk8YW6Fk-2" value="&lt;b&gt;Int 08&lt;/b&gt;&lt;br&gt;.2" style="text;html=1;strokeColor=none;fillColor=none;align=center;verticalAlign=middle;whiteSpace=wrap;rounded=0;shadow=0;labelBackgroundColor=#ffffff;" vertex="1" parent="nwbIhPX5BDSDUk8YW6Fk-15">
          <mxGeometry x="290" width="40" height="20" as="geometry"/>
        </mxCell>
        <mxCell id="nwbIhPX5BDSDUk8YW6Fk-48" value="&lt;h1&gt;&lt;font style=&quot;font-size: 16px&quot;&gt;SRVFN-HV01&lt;/font&gt;&lt;/h1&gt;&lt;div&gt;&lt;font style=&quot;font-size: 12px&quot;&gt;Marca/Modelo: DELL Poweredge 620&lt;/font&gt;&lt;/div&gt;&lt;div&gt;&lt;font style=&quot;font-size: 12px&quot;&gt;Função: Servidor de Virtualização&lt;/font&gt;&lt;/div&gt;&lt;div&gt;&lt;font style=&quot;font-size: 12px&quot;&gt;&lt;br&gt;&lt;/font&gt;&lt;/div&gt;" style="text;html=1;strokeColor=none;fillColor=none;spacing=5;spacingTop=-20;whiteSpace=wrap;overflow=hidden;rounded=0;" vertex="1" parent="nwbIhPX5BDSDUk8YW6Fk-15">
          <mxGeometry x="230" y="20" width="240" height="110" as="geometry"/>
        </mxCell>
        <mxCell id="nwbIhPX5BDSDUk8YW6Fk-49" value="DNS&lt;br&gt;Recursivo" style="text;html=1;strokeColor=none;fillColor=none;align=center;verticalAlign=middle;whiteSpace=wrap;rounded=0;" vertex="1" parent="nwbIhPX5BDSDUk8YW6Fk-15">
          <mxGeometry x="50" y="240" width="40" height="20" as="geometry"/>
        </mxCell>
        <mxCell id="nwbIhPX5BDSDUk8YW6Fk-50" value="Radius" style="text;html=1;strokeColor=none;fillColor=none;align=center;verticalAlign=middle;whiteSpace=wrap;rounded=0;" vertex="1" parent="nwbIhPX5BDSDUk8YW6Fk-15">
          <mxGeometry x="67" y="101" width="40" height="20" as="geometry"/>
        </mxCell>
        <mxCell id="nwbIhPX5BDSDUk8YW6Fk-51" value="Zabbix" style="text;html=1;strokeColor=none;fillColor=none;align=center;verticalAlign=middle;whiteSpace=wrap;rounded=0;" vertex="1" parent="nwbIhPX5BDSDUk8YW6Fk-15">
          <mxGeometry x="190" y="260" width="40" height="20" as="geometry"/>
        </mxCell>
        <mxCell id="nwbIhPX5BDSDUk8YW6Fk-65" value="V-Switch" style="text;html=1;strokeColor=none;fillColor=none;align=center;verticalAlign=middle;whiteSpace=wrap;rounded=0;" vertex="1" parent="nwbIhPX5BDSDUk8YW6Fk-15">
          <mxGeometry x="170" y="122" width="50" height="20" as="geometry"/>
        </mxCell>
        <mxCell id="nwbIhPX5BDSDUk8YW6Fk-71" value="Network X.X.10.0/28&lt;br&gt;" style="text;html=1;strokeColor=none;fillColor=none;align=center;verticalAlign=middle;whiteSpace=wrap;rounded=0;" vertex="1" parent="nwbIhPX5BDSDUk8YW6Fk-15">
          <mxGeometry x="236" y="151" width="160" height="20" as="geometry"/>
        </mxCell>
        <mxCell id="nwbIhPX5BDSDUk8YW6Fk-75" value=".14" style="text;html=1;strokeColor=none;fillColor=none;align=center;verticalAlign=middle;whiteSpace=wrap;rounded=0;" vertex="1" parent="nwbIhPX5BDSDUk8YW6Fk-15">
          <mxGeometry x="120" y="50" width="40" height="20" as="geometry"/>
        </mxCell>
        <mxCell id="nwbIhPX5BDSDUk8YW6Fk-77" value=".13" style="text;html=1;strokeColor=none;fillColor=none;align=center;verticalAlign=middle;whiteSpace=wrap;rounded=0;" vertex="1" parent="nwbIhPX5BDSDUk8YW6Fk-15">
          <mxGeometry x="97" y="190" width="40" height="20" as="geometry"/>
        </mxCell>
        <mxCell id="nwbIhPX5BDSDUk8YW6Fk-79" value=".12" style="text;html=1;strokeColor=none;fillColor=none;align=center;verticalAlign=middle;whiteSpace=wrap;rounded=0;" vertex="1" parent="nwbIhPX5BDSDUk8YW6Fk-15">
          <mxGeometry x="208" y="164" width="40" height="20" as="geometry"/>
        </mxCell>
        <mxCell id="L07qHpA4tPIu6Sngrlaf-20" value="Conexões" parent="0"/>
        <mxCell id="L07qHpA4tPIu6Sngrlaf-35" style="edgeStyle=orthogonalEdgeStyle;orthogonalLoop=1;jettySize=auto;html=1;entryX=0;entryY=0.5;entryDx=0;entryDy=0;entryPerimeter=0;endArrow=none;endFill=0;strokeWidth=3;fillColor=#647687;strokeColor=#314354;curved=1;" parent="L07qHpA4tPIu6Sngrlaf-20" source="L07qHpA4tPIu6Sngrlaf-73" target="L07qHpA4tPIu6Sngrlaf-21" edge="1">
          <mxGeometry relative="1" as="geometry"/>
        </mxCell>
        <mxCell id="L07qHpA4tPIu6Sngrlaf-37" style="edgeStyle=orthogonalEdgeStyle;rounded=1;orthogonalLoop=1;jettySize=auto;html=1;exitX=0.5;exitY=1;exitDx=0;exitDy=0;exitPerimeter=0;entryX=0.5;entryY=0;entryDx=0;entryDy=0;entryPerimeter=0;endArrow=none;endFill=0;strokeColor=#FF0000;strokeWidth=3;shape=link;" parent="L07qHpA4tPIu6Sngrlaf-20" source="L07qHpA4tPIu6Sngrlaf-85" target="L07qHpA4tPIu6Sngrlaf-33" edge="1">
          <mxGeometry relative="1" as="geometry"/>
        </mxCell>
        <mxCell id="L07qHpA4tPIu6Sngrlaf-73" value="&lt;b&gt;Int 01&lt;/b&gt;" style="text;html=1;strokeColor=none;fillColor=none;align=center;verticalAlign=middle;whiteSpace=wrap;rounded=0;shadow=0;labelBackgroundColor=#ffffff;" parent="L07qHpA4tPIu6Sngrlaf-20" vertex="1">
          <mxGeometry x="519" y="70" width="40" height="20" as="geometry"/>
        </mxCell>
        <mxCell id="L07qHpA4tPIu6Sngrlaf-74" style="edgeStyle=orthogonalEdgeStyle;orthogonalLoop=1;jettySize=auto;html=1;entryX=0;entryY=0.5;entryDx=0;entryDy=0;entryPerimeter=0;endArrow=none;endFill=0;strokeWidth=3;fillColor=#647687;strokeColor=#314354;curved=1;" parent="L07qHpA4tPIu6Sngrlaf-20" source="nwbIhPX5BDSDUk8YW6Fk-31" target="L07qHpA4tPIu6Sngrlaf-73" edge="1">
          <mxGeometry relative="1" as="geometry">
            <mxPoint x="354.9988193544905" y="104.71428571428578" as="sourcePoint"/>
            <mxPoint x="560.2857142857142" y="80.42857142857144" as="targetPoint"/>
          </mxGeometry>
        </mxCell>
        <mxCell id="L07qHpA4tPIu6Sngrlaf-85" value="&lt;b&gt;Int&amp;nbsp;09|10&lt;br&gt;&lt;/b&gt;" style="text;html=1;strokeColor=none;fillColor=none;align=center;verticalAlign=middle;whiteSpace=wrap;rounded=0;shadow=0;labelBackgroundColor=#ffffff;" parent="L07qHpA4tPIu6Sngrlaf-20" vertex="1">
          <mxGeometry x="590" y="310" width="40" height="20" as="geometry"/>
        </mxCell>
        <mxCell id="L07qHpA4tPIu6Sngrlaf-87" style="edgeStyle=orthogonalEdgeStyle;rounded=1;orthogonalLoop=1;jettySize=auto;html=1;entryX=0.5;entryY=0;entryDx=0;entryDy=0;entryPerimeter=0;endArrow=none;endFill=0;strokeColor=#FF0000;strokeWidth=3;shape=link;exitX=0.5;exitY=1;exitDx=0;exitDy=0;exitPerimeter=0;" parent="L07qHpA4tPIu6Sngrlaf-20" source="nwbIhPX5BDSDUk8YW6Fk-22" target="L07qHpA4tPIu6Sngrlaf-85" edge="1">
          <mxGeometry relative="1" as="geometry">
            <mxPoint x="610" y="258" as="sourcePoint"/>
            <mxPoint x="610.344827586207" y="329.8965517241379" as="targetPoint"/>
          </mxGeometry>
        </mxCell>
        <mxCell id="L07qHpA4tPIu6Sngrlaf-100" style="edgeStyle=none;shape=flexArrow;rounded=0;orthogonalLoop=1;jettySize=auto;html=1;exitX=0.5;exitY=0;exitDx=0;exitDy=0;startArrow=none;startFill=0;endArrow=none;endFill=0;strokeColor=#000000;strokeWidth=3;entryX=0.5;entryY=1;entryDx=0;entryDy=0;entryPerimeter=0;" parent="L07qHpA4tPIu6Sngrlaf-20" source="L07qHpA4tPIu6Sngrlaf-88" target="L07qHpA4tPIu6Sngrlaf-33" edge="1">
          <mxGeometry relative="1" as="geometry">
            <mxPoint x="610" y="565.5" as="targetPoint"/>
          </mxGeometry>
        </mxCell>
        <mxCell id="nwbIhPX5BDSDUk8YW6Fk-3" style="edgeStyle=orthogonalEdgeStyle;curved=1;orthogonalLoop=1;jettySize=auto;html=1;exitX=0;exitY=0.5;exitDx=0;exitDy=0;exitPerimeter=0;endArrow=none;endFill=0;strokeColor=#FF0000;strokeWidth=3;" edge="1" parent="L07qHpA4tPIu6Sngrlaf-20" source="nwbIhPX5BDSDUk8YW6Fk-4" target="nwbIhPX5BDSDUk8YW6Fk-2">
          <mxGeometry relative="1" as="geometry">
            <mxPoint x="420" y="485" as="sourcePoint"/>
            <mxPoint x="220" y="531" as="targetPoint"/>
          </mxGeometry>
        </mxCell>
        <mxCell id="nwbIhPX5BDSDUk8YW6Fk-4" value="&lt;font color=&quot;#ff0000&quot;&gt;1 Gbps&lt;/font&gt;" style="text;html=1;strokeColor=#FF0000;fillColor=none;align=center;verticalAlign=middle;whiteSpace=wrap;rounded=0;shadow=0;labelBackgroundColor=#ffffff;" vertex="1" parent="L07qHpA4tPIu6Sngrlaf-20">
          <mxGeometry x="370" y="200" width="50" height="20" as="geometry"/>
        </mxCell>
        <mxCell id="nwbIhPX5BDSDUk8YW6Fk-5" style="edgeStyle=orthogonalEdgeStyle;curved=1;orthogonalLoop=1;jettySize=auto;html=1;endArrow=none;endFill=0;strokeColor=#FF0000;strokeWidth=3;entryX=1;entryY=0.5;entryDx=0;entryDy=0;" edge="1" parent="L07qHpA4tPIu6Sngrlaf-20" source="L07qHpA4tPIu6Sngrlaf-79" target="nwbIhPX5BDSDUk8YW6Fk-4">
          <mxGeometry relative="1" as="geometry">
            <mxPoint x="440" y="475" as="sourcePoint"/>
            <mxPoint x="270" y="540" as="targetPoint"/>
          </mxGeometry>
        </mxCell>
        <mxCell id="L07qHpA4tPIu6Sngrlaf-79" value="&lt;b&gt;Int 08&lt;/b&gt;&lt;br&gt;.1" style="text;html=1;strokeColor=none;fillColor=none;align=center;verticalAlign=middle;whiteSpace=wrap;rounded=0;shadow=0;labelBackgroundColor=#ffffff;" parent="L07qHpA4tPIu6Sngrlaf-20" vertex="1">
          <mxGeometry x="519" y="370" width="40" height="20" as="geometry"/>
        </mxCell>
        <mxCell id="nwbIhPX5BDSDUk8YW6Fk-8" style="edgeStyle=orthogonalEdgeStyle;curved=1;orthogonalLoop=1;jettySize=auto;html=1;endArrow=none;endFill=0;strokeColor=#FF0000;strokeWidth=3;" edge="1" parent="L07qHpA4tPIu6Sngrlaf-20" source="L07qHpA4tPIu6Sngrlaf-33" target="L07qHpA4tPIu6Sngrlaf-79">
          <mxGeometry relative="1" as="geometry">
            <mxPoint x="560" y="380" as="sourcePoint"/>
            <mxPoint x="430" y="410" as="targetPoint"/>
            <Array as="points">
              <mxPoint x="550" y="380"/>
              <mxPoint x="550" y="380"/>
            </Array>
          </mxGeometry>
        </mxCell>
        <mxCell id="L07qHpA4tPIu6Sngrlaf-88" value="&lt;b&gt;Int 01-05&lt;br&gt;&lt;/b&gt;" style="text;html=1;strokeColor=none;fillColor=none;align=center;verticalAlign=middle;whiteSpace=wrap;rounded=0;shadow=0;labelBackgroundColor=#ffffff;" parent="L07qHpA4tPIu6Sngrlaf-20" vertex="1">
          <mxGeometry x="580" y="440" width="60" height="20" as="geometry"/>
        </mxCell>
        <mxCell id="nwbIhPX5BDSDUk8YW6Fk-13" style="edgeStyle=none;shape=flexArrow;rounded=0;orthogonalLoop=1;jettySize=auto;html=1;exitX=0.5;exitY=0;exitDx=0;exitDy=0;startArrow=none;startFill=0;endArrow=none;endFill=0;strokeColor=#000000;strokeWidth=3;entryX=0.5;entryY=1;entryDx=0;entryDy=0;entryPerimeter=0;" edge="1" parent="L07qHpA4tPIu6Sngrlaf-20" source="L07qHpA4tPIu6Sngrlaf-97" target="L07qHpA4tPIu6Sngrlaf-88">
          <mxGeometry relative="1" as="geometry">
            <mxPoint x="610" y="630" as="sourcePoint"/>
            <mxPoint x="610" y="430" as="targetPoint"/>
          </mxGeometry>
        </mxCell>
        <mxCell id="nwbIhPX5BDSDUk8YW6Fk-22" value="&lt;font color=&quot;#ff0000&quot;&gt;2 Gbps&lt;/font&gt;" style="text;html=1;strokeColor=#FF0000;fillColor=none;align=center;verticalAlign=middle;whiteSpace=wrap;rounded=0;shadow=0;labelBackgroundColor=#ffffff;" vertex="1" parent="L07qHpA4tPIu6Sngrlaf-20">
          <mxGeometry x="585" y="210" width="50" height="17" as="geometry"/>
        </mxCell>
        <mxCell id="nwbIhPX5BDSDUk8YW6Fk-23" style="edgeStyle=orthogonalEdgeStyle;rounded=1;orthogonalLoop=1;jettySize=auto;html=1;entryX=0.5;entryY=0;entryDx=0;entryDy=0;entryPerimeter=0;endArrow=none;endFill=0;strokeColor=#FF0000;strokeWidth=3;shape=link;exitX=0.5;exitY=1;exitDx=0;exitDy=0;exitPerimeter=0;" edge="1" parent="L07qHpA4tPIu6Sngrlaf-20" source="L07qHpA4tPIu6Sngrlaf-76" target="nwbIhPX5BDSDUk8YW6Fk-22">
          <mxGeometry relative="1" as="geometry">
            <mxPoint x="610" y="130" as="sourcePoint"/>
            <mxPoint x="610" y="300" as="targetPoint"/>
          </mxGeometry>
        </mxCell>
        <mxCell id="L07qHpA4tPIu6Sngrlaf-76" value="&lt;b&gt;Int&amp;nbsp; 09|10&lt;/b&gt;" style="text;html=1;strokeColor=none;fillColor=none;align=center;verticalAlign=middle;whiteSpace=wrap;rounded=0;shadow=0;labelBackgroundColor=#ffffff;" parent="L07qHpA4tPIu6Sngrlaf-20" vertex="1">
          <mxGeometry x="580" y="130" width="60" height="20" as="geometry"/>
        </mxCell>
        <mxCell id="nwbIhPX5BDSDUk8YW6Fk-24" style="edgeStyle=orthogonalEdgeStyle;rounded=1;orthogonalLoop=1;jettySize=auto;html=1;entryX=0.5;entryY=0;entryDx=0;entryDy=0;entryPerimeter=0;endArrow=none;endFill=0;strokeColor=#FF0000;strokeWidth=3;shape=link;exitX=0.5;exitY=1;exitDx=0;exitDy=0;exitPerimeter=0;" edge="1" parent="L07qHpA4tPIu6Sngrlaf-20" source="L07qHpA4tPIu6Sngrlaf-21" target="L07qHpA4tPIu6Sngrlaf-76">
          <mxGeometry relative="1" as="geometry">
            <mxPoint x="610.2380952380952" y="130" as="sourcePoint"/>
            <mxPoint x="615" y="200" as="targetPoint"/>
          </mxGeometry>
        </mxCell>
        <mxCell id="nwbIhPX5BDSDUk8YW6Fk-31" value="10 Gbps" style="text;html=1;strokeColor=#000000;fillColor=none;align=center;verticalAlign=middle;whiteSpace=wrap;rounded=0;shadow=0;labelBackgroundColor=#ffffff;" vertex="1" parent="L07qHpA4tPIu6Sngrlaf-20">
          <mxGeometry x="410" y="80" width="50" height="17" as="geometry"/>
        </mxCell>
        <mxCell id="nwbIhPX5BDSDUk8YW6Fk-32" style="edgeStyle=orthogonalEdgeStyle;orthogonalLoop=1;jettySize=auto;html=1;entryX=0;entryY=0.5;entryDx=0;entryDy=0;entryPerimeter=0;endArrow=none;endFill=0;strokeWidth=3;fillColor=#647687;strokeColor=#314354;curved=1;" edge="1" parent="L07qHpA4tPIu6Sngrlaf-20" source="L07qHpA4tPIu6Sngrlaf-31" target="nwbIhPX5BDSDUk8YW6Fk-31">
          <mxGeometry relative="1" as="geometry">
            <mxPoint x="354.9999312113407" y="105.0689655172414" as="sourcePoint"/>
            <mxPoint x="510.344827586207" y="80.24137931034483" as="targetPoint"/>
          </mxGeometry>
        </mxCell>
        <mxCell id="L07qHpA4tPIu6Sngrlaf-2" value="Equipamentos" parent="0"/>
        <mxCell id="L07qHpA4tPIu6Sngrlaf-19" value="" style="verticalLabelPosition=bottom;html=1;verticalAlign=top;align=center;strokeColor=#001DBC;fillColor=#3399FF;shape=mxgraph.azure.enterprise;pointerEvents=1;shadow=0;labelBackgroundColor=none;fontColor=#ffffff;" parent="L07qHpA4tPIu6Sngrlaf-2" vertex="1">
          <mxGeometry x="336.5" y="565" width="36" height="50" as="geometry"/>
        </mxCell>
        <object label="" placeholders="1" ROTEADOR="Mikrotik CCR1036" id="L07qHpA4tPIu6Sngrlaf-21">
          <mxCell style="outlineConnect=0;dashed=0;verticalLabelPosition=bottom;verticalAlign=top;align=center;html=1;shape=mxgraph.aws3.router;fillColor=#0050ef;strokeColor=#001DBC;fontColor=#ffffff;labelBorderColor=none;labelBackgroundColor=none;shadow=0;noLabel=0;" parent="L07qHpA4tPIu6Sngrlaf-2" vertex="1">
            <mxGeometry x="560" y="30" width="100" height="100" as="geometry"/>
          </mxCell>
        </object>
        <object label="" placeholders="1" ROTEADOR="Mikrotik CCR1036" id="L07qHpA4tPIu6Sngrlaf-33">
          <mxCell style="outlineConnect=0;dashed=0;verticalLabelPosition=bottom;verticalAlign=top;align=center;html=1;shape=mxgraph.aws3.router;fillColor=#0050ef;strokeColor=#001DBC;fontColor=#ffffff;labelBorderColor=none;labelBackgroundColor=none;shadow=0;noLabel=0;" parent="L07qHpA4tPIu6Sngrlaf-2" vertex="1">
            <mxGeometry x="560" y="330" width="100" height="100" as="geometry"/>
          </mxCell>
        </object>
        <mxCell id="L07qHpA4tPIu6Sngrlaf-36" value="" style="group" parent="L07qHpA4tPIu6Sngrlaf-2" vertex="1" connectable="0">
          <mxGeometry x="180" width="220" height="160" as="geometry"/>
        </mxCell>
        <mxCell id="L07qHpA4tPIu6Sngrlaf-31" value="" style="aspect=fixed;perimeter=ellipsePerimeter;html=1;align=center;shadow=0;dashed=0;spacingTop=3;image;image=img/lib/active_directory/internet_cloud.svg;" parent="L07qHpA4tPIu6Sngrlaf-36" vertex="1">
          <mxGeometry y="50" width="175" height="110" as="geometry"/>
        </mxCell>
        <mxCell id="L07qHpA4tPIu6Sngrlaf-32" value="" style="shape=image;imageAspect=0;aspect=fixed;verticalLabelPosition=bottom;verticalAlign=top;image=https://youcast.tv.br/wp-content/uploads/2018/04/itsBrasil-01.png;" parent="L07qHpA4tPIu6Sngrlaf-36" vertex="1">
          <mxGeometry x="60" width="160" height="160" as="geometry"/>
        </mxCell>
        <mxCell id="L07qHpA4tPIu6Sngrlaf-101" value="" style="verticalLabelPosition=bottom;html=1;verticalAlign=top;align=center;strokeColor=#001DBC;fillColor=#0050ef;shape=mxgraph.azure.enterprise;pointerEvents=1;shadow=0;labelBackgroundColor=none;fontColor=#ffffff;" parent="L07qHpA4tPIu6Sngrlaf-2" vertex="1">
          <mxGeometry x="290" y="540" width="38" height="50" as="geometry"/>
        </mxCell>
        <mxCell id="nwbIhPX5BDSDUk8YW6Fk-19" style="edgeStyle=orthogonalEdgeStyle;rounded=1;orthogonalLoop=1;jettySize=auto;html=1;exitX=0;exitY=0.5;exitDx=0;exitDy=0;entryX=1;entryY=0.5;entryDx=0;entryDy=0;endArrow=none;endFill=0;" edge="1" parent="L07qHpA4tPIu6Sngrlaf-2" source="nwbIhPX5BDSDUk8YW6Fk-36" target="L07qHpA4tPIu6Sngrlaf-102">
          <mxGeometry relative="1" as="geometry"/>
        </mxCell>
        <mxCell id="nwbIhPX5BDSDUk8YW6Fk-33" value="&lt;h1&gt;&lt;font style=&quot;font-size: 16px&quot;&gt;BGPFN-RB01&lt;/font&gt;&lt;/h1&gt;&lt;div&gt;&lt;font style=&quot;font-size: 12px&quot;&gt;Marca/Modelo: MikroTik CCR 1036&lt;/font&gt;&lt;/div&gt;&lt;div&gt;&lt;font style=&quot;font-size: 12px&quot;&gt;Função: Roteador de Borda&lt;/font&gt;&lt;/div&gt;&lt;div&gt;&lt;font style=&quot;font-size: 12px&quot;&gt;&lt;br&gt;&lt;/font&gt;&lt;/div&gt;" style="text;html=1;strokeColor=none;fillColor=none;spacing=5;spacingTop=-20;whiteSpace=wrap;overflow=hidden;rounded=0;" vertex="1" parent="L07qHpA4tPIu6Sngrlaf-2">
          <mxGeometry x="660" y="40" width="240" height="110" as="geometry"/>
        </mxCell>
        <mxCell id="nwbIhPX5BDSDUk8YW6Fk-34" value="&lt;h1&gt;&lt;font style=&quot;font-size: 16px&quot;&gt;CONFN-RB01&lt;/font&gt;&lt;/h1&gt;&lt;div&gt;&lt;font style=&quot;font-size: 12px&quot;&gt;Marca/Modelo: MikroTik CCR 1036&lt;/font&gt;&lt;/div&gt;&lt;div&gt;&lt;font style=&quot;font-size: 12px&quot;&gt;Função: Roteador Core&lt;br&gt;&lt;br&gt;&lt;/font&gt;&lt;/div&gt;&lt;div&gt;&lt;font style=&quot;font-size: 12px&quot;&gt;&lt;br&gt;&lt;/font&gt;&lt;/div&gt;" style="text;html=1;strokeColor=none;fillColor=none;spacing=5;spacingTop=-20;whiteSpace=wrap;overflow=hidden;rounded=0;" vertex="1" parent="L07qHpA4tPIu6Sngrlaf-2">
          <mxGeometry x="660" y="340" width="240" height="80" as="geometry"/>
        </mxCell>
        <mxCell id="nwbIhPX5BDSDUk8YW6Fk-36" value="1 Gbps" style="text;html=1;strokeColor=#000000;fillColor=none;align=center;verticalAlign=middle;whiteSpace=wrap;rounded=0;shadow=0;labelBackgroundColor=#ffffff;" vertex="1" parent="L07qHpA4tPIu6Sngrlaf-2">
          <mxGeometry x="420" y="570" width="50" height="20" as="geometry"/>
        </mxCell>
        <mxCell id="nwbIhPX5BDSDUk8YW6Fk-39" style="edgeStyle=orthogonalEdgeStyle;rounded=1;orthogonalLoop=1;jettySize=auto;html=1;exitX=0.035;exitY=0.275;exitDx=0;exitDy=0;entryX=1;entryY=0.5;entryDx=0;entryDy=0;endArrow=none;endFill=0;exitPerimeter=0;" edge="1" parent="L07qHpA4tPIu6Sngrlaf-2" source="L07qHpA4tPIu6Sngrlaf-97" target="nwbIhPX5BDSDUk8YW6Fk-36">
          <mxGeometry relative="1" as="geometry">
            <mxPoint x="517.0232558139535" y="623.9302325581396" as="sourcePoint"/>
            <mxPoint x="400.04651162790697" y="579.9767441860465" as="targetPoint"/>
          </mxGeometry>
        </mxCell>
        <mxCell id="nwbIhPX5BDSDUk8YW6Fk-42" style="edgeStyle=orthogonalEdgeStyle;rounded=1;orthogonalLoop=1;jettySize=auto;html=1;exitX=1;exitY=0.5;exitDx=0;exitDy=0;endArrow=none;endFill=0;strokeColor=#000000;" edge="1" parent="L07qHpA4tPIu6Sngrlaf-2" source="L07qHpA4tPIu6Sngrlaf-103">
          <mxGeometry relative="1" as="geometry">
            <mxPoint x="399.7142857142858" y="740.1428571428571" as="sourcePoint"/>
            <mxPoint x="420" y="740" as="targetPoint"/>
          </mxGeometry>
        </mxCell>
        <mxCell id="L07qHpA4tPIu6Sngrlaf-72" value="Portas/Link" parent="0"/>
        <mxCell id="nwbIhPX5BDSDUk8YW6Fk-1" value="Endereçamento" parent="0"/>
        <mxCell id="nwbIhPX5BDSDUk8YW6Fk-47" value="Text" style="text;html=1;strokeColor=none;fillColor=none;align=center;verticalAlign=middle;whiteSpace=wrap;rounded=0;" vertex="1" parent="nwbIhPX5BDSDUk8YW6Fk-1">
          <mxGeometry x="660" y="150" width="40" height="20" as="geometry"/>
        </mxCell>
        <mxCell id="nwbIhPX5BDSDUk8YW6Fk-73" value="Text" style="text;html=1;strokeColor=none;fillColor=none;align=center;verticalAlign=middle;whiteSpace=wrap;rounded=0;" vertex="1" parent="nwbIhPX5BDSDUk8YW6Fk-1">
          <mxGeometry x="480" y="470" width="40" height="20" as="geometry"/>
        </mxCell>
      </root>
    </mxGraphModel>
  </diagram>
</mxfile>
